<svg width="20" height="20" viewBox="0 0 20 20" fill="none" xmlns="http://www.w3.org/2000/svg">
<g clip-path="url(#clip0_2064_1290)">
<path d="M12.8516 17.2334H16.4964C16.4452 17.5664 16.2972 17.856 16.0525 18.1021C15.8077 18.3482 15.508 18.4942 15.1534 18.5399L3.47631 19.9842C2.95176 20.0476 2.48073 19.9206 2.06321 19.6032C1.64568 19.2859 1.40541 18.8654 1.34238 18.3418L0.0154806 7.47185C-0.0478905 6.94729 0.0833006 6.47747 0.409044 6.06238C0.734787 5.64731 1.15984 5.40783 1.68422 5.34398L2.62474 5.24285V6.82052L1.88041 6.90545C1.78601 6.91896 1.71184 6.95941 1.6579 7.02683C1.60395 7.09427 1.58373 7.17519 1.59721 7.26959L2.93623 18.1395C2.94971 18.2339 2.99018 18.3081 3.05761 18.3621C3.12503 18.416 3.20594 18.4362 3.30034 18.4226L12.8516 17.2334ZM6.62967 15.1298C6.09838 15.1298 5.64867 14.9457 5.28054 14.5776C4.91241 14.2094 4.72834 13.7597 4.72834 13.2284V1.90132C4.72834 1.37004 4.91241 0.920327 5.28054 0.552196C5.64867 0.184066 6.09838 0 6.62967 0H17.9567C18.488 0 18.9378 0.184066 19.3059 0.552196C19.674 0.920327 19.8581 1.37004 19.8581 1.90132V13.2284C19.8581 13.7597 19.674 14.2094 19.3059 14.5776C18.9378 14.9457 18.488 15.1298 17.9567 15.1298H6.62967ZM6.62967 13.5521H17.9567C18.0512 13.5521 18.1287 13.5218 18.1894 13.4611C18.2501 13.4004 18.2804 13.3228 18.2804 13.2284V1.90132C18.2804 1.80692 18.2501 1.72937 18.1894 1.66868C18.1287 1.60802 18.0512 1.57768 17.9567 1.57768H6.62967C6.53527 1.57768 6.45772 1.60802 6.39703 1.66868C6.33636 1.72937 6.30603 1.80692 6.30603 1.90132V13.2284C6.30603 13.3228 6.33636 13.4004 6.39703 13.4611C6.45772 13.5218 6.53527 13.5521 6.62967 13.5521Z" fill="#073555"/>
<path d="M7.879 11.0357C7.82504 11.1048 7.87426 11.2057 7.96188 11.2057H16.9977C17.0852 11.2057 17.1344 11.1052 17.0808 11.036L14.0297 7.10552C13.9877 7.05128 13.9056 7.05128 13.8635 7.10552L11.8521 9.69689C11.8101 9.75095 11.7285 9.75116 11.6862 9.69731L10.3851 8.03913C10.3429 7.98538 10.2615 7.98547 10.2195 8.0393L7.879 11.0357Z" fill="#073555"/>
</g>
<defs>
<clipPath id="clip0_2064_1290">
<rect width="20" height="20" fill="white"/>
</clipPath>
</defs>
</svg>
