<svg width="20" height="20" viewBox="0 0 20 20" fill="none" xmlns="http://www.w3.org/2000/svg">
<g clip-path="url(#clip0_2064_1297)">
<path d="M6.44739 3.57703L8.08226 2.2052C8.938 1.48715 10.1151 1.40376 11.0413 1.90498L11.1908 1.85057C11.7925 1.63157 12.4069 1.51805 13.0137 1.50056C11.5101 -0.279471 8.84877 -0.508987 7.06249 0.98988L2.08854 5.16352L6.44739 3.57703Z" fill="#073555"/>
<path fill-rule="evenodd" clip-rule="evenodd" d="M9.3449 13.654C9.3449 12.0784 10.6222 10.8011 12.1978 10.8011C13.7734 10.8011 15.0507 12.0784 15.0507 13.654C15.0507 15.2296 13.7734 16.5069 12.1978 16.5069C10.6222 16.5069 9.3449 15.2296 9.3449 13.654ZM12.1978 12.1232C11.3523 12.1232 10.667 12.8086 10.667 13.654C10.667 14.4994 11.3523 15.1848 12.1978 15.1848C13.0432 15.1848 13.7286 14.4994 13.7286 13.654C13.7286 12.8086 13.0432 12.1232 12.1978 12.1232Z" fill="#073555"/>
<path d="M5.30947 13.6543C5.30947 12.8088 5.99484 12.1235 6.84028 12.1235C7.18357 12.1235 7.49874 12.2357 7.7537 12.4257C8.04644 12.6438 8.46059 12.5834 8.67874 12.2906C8.89689 11.9979 8.83643 11.5837 8.5437 11.3656C8.0683 11.0113 7.47785 10.8014 6.84028 10.8014C5.26468 10.8014 3.9874 12.0787 3.9874 13.6543C3.9874 15.2299 5.26468 16.5071 6.84028 16.5071C7.47005 16.5071 8.05391 16.3023 8.52629 15.9558C8.82067 15.7399 8.88426 15.3262 8.66833 15.0318C8.4524 14.7374 8.03872 14.6738 7.74434 14.8898C7.49107 15.0755 7.17943 15.1851 6.84028 15.1851C5.99484 15.1851 5.30947 14.4997 5.30947 13.6543Z" fill="#073555"/>
<path fill-rule="evenodd" clip-rule="evenodd" d="M4.23064 7.30808C1.89412 7.30808 0 9.2022 0 11.5387V15.7694C0 18.1059 1.89412 20 4.23064 20H14.8072C17.1438 20 19.0379 18.1059 19.0379 15.7694V11.5387C19.0379 9.2022 17.1438 7.30808 14.8072 7.30808H4.23064ZM14.8072 8.89457H4.23064C2.77032 8.89457 1.58649 10.0784 1.58649 11.5387V15.7694C1.58649 17.2297 2.77032 18.4135 4.23064 18.4135H14.8072C16.2676 18.4135 17.4514 17.2297 17.4514 15.7694V11.5387C17.4514 10.0784 16.2676 8.89457 14.8072 8.89457Z" fill="#073555"/>
<path d="M12.2766 4.83216L9.8329 5.72158H5.19431L11.7339 3.34135C13.9296 2.54221 16.3573 3.67428 17.1564 5.86988L17.3074 6.2847C16.6922 5.99147 16.0175 5.80309 15.3063 5.74268C14.6276 4.82564 13.4032 4.42209 12.2766 4.83216Z" fill="#073555"/>
</g>
<defs>
<clipPath id="clip0_2064_1297">
<rect width="20" height="20" fill="white"/>
</clipPath>
</defs>
</svg>
