<svg width="20" height="20" viewBox="0 0 20 20" fill="none" xmlns="http://www.w3.org/2000/svg">
<g clip-path="url(#clip0_2064_1279)">
<path d="M10 0C10.3622 0 10.7243 0.0849563 11.0469 0.246094L17.2969 3.37109C18.0966 3.77098 18.5938 4.57504 18.5938 5.46875V16.0938C18.5938 16.5252 18.244 16.875 17.8125 16.875C17.381 16.875 17.0312 16.5252 17.0312 16.0938V5.46875C17.0312 5.17082 16.8654 4.90306 16.5986 4.76953L10.3486 1.64453C10.2403 1.59035 10.1229 1.5625 10 1.5625C9.87711 1.5625 9.75969 1.59035 9.65137 1.64453L3.40137 4.76953C3.1346 4.90306 2.96875 5.17082 2.96875 5.46875V18.4375H4.53125V14.5312C4.53125 13.2389 5.58266 12.1875 6.875 12.1875C8.16734 12.1875 9.21875 13.2389 9.21875 14.5312V18.4375H19.2188C19.6502 18.4375 20 18.7873 20 19.2188C20 19.6502 19.6502 20 19.2188 20H0.78125C0.349766 20 0 19.6502 0 19.2188C0 18.7873 0.349766 18.4375 0.78125 18.4375H1.40625V5.46875C1.40625 4.57504 1.9034 3.77098 2.70312 3.37109L8.95312 0.246094C9.27566 0.0849564 9.63775 0 10 0ZM6.875 13.75C6.44422 13.75 6.09375 14.1005 6.09375 14.5312V18.4375H7.65625V14.5312C7.65625 14.1005 7.30578 13.75 6.875 13.75ZM14.6875 12.1875C15.119 12.1875 15.4688 12.5373 15.4688 12.9688V16.0938C15.4688 16.5252 15.119 16.875 14.6875 16.875H11.5625C11.131 16.875 10.7812 16.5252 10.7812 16.0938V12.9688C10.7812 12.5373 11.131 12.1875 11.5625 12.1875H14.6875ZM12.3438 15.3125H13.9062V13.75H12.3438V15.3125ZM8.4375 5.9375C8.86898 5.9375 9.21875 6.28727 9.21875 6.71875V9.84375C9.21875 10.2752 8.86898 10.625 8.4375 10.625H5.3125C4.88102 10.625 4.53125 10.2752 4.53125 9.84375V6.71875C4.53125 6.28727 4.88102 5.9375 5.3125 5.9375H8.4375ZM14.6875 5.9375C15.119 5.9375 15.4688 6.28727 15.4688 6.71875V9.84375C15.4688 10.2752 15.119 10.625 14.6875 10.625H11.5625C11.131 10.625 10.7812 10.2752 10.7812 9.84375V6.71875C10.7812 6.28727 11.131 5.9375 11.5625 5.9375H14.6875ZM6.09375 9.0625H7.65625V7.5H6.09375V9.0625ZM12.3438 9.0625H13.9062V7.5H12.3438V9.0625Z" fill="#073555"/>
</g>
<defs>
<clipPath id="clip0_2064_1279">
<rect width="20" height="20" fill="white"/>
</clipPath>
</defs>
</svg>
