<svg xmlns="http://www.w3.org/2000/svg" xmlns:xlink="http://www.w3.org/1999/xlink" width="1366" zoomAndPan="magnify" viewBox="0 0 1024.5 198" height="264" preserveAspectRatio="xMidYMid meet" version="1.2"><defs><clipPath id="f55b6cc7f2"><path d="M 0 0.046875 L 1024 0.046875 L 1024 197.949219 L 0 197.949219 Z M 0 0.046875 "/></clipPath><clipPath id="a2542f2ee7"><path d="M 231 0.046875 L 267 0.046875 L 267 34 L 231 34 Z M 231 0.046875 "/></clipPath><clipPath id="69712f4f14"><path d="M 398 2 L 582 2 L 582 195.703125 L 398 195.703125 Z M 398 2 "/></clipPath><clipPath id="9ca52c56ef"><path d="M 739 55 L 859 55 L 859 195.703125 L 739 195.703125 Z M 739 55 "/></clipPath></defs><g id="e20792d7d2"><g clip-rule="nonzero" clip-path="url(#f55b6cc7f2)"><path style=" stroke:none;fill-rule:nonzero;fill:#ffffff;fill-opacity:1;" d="M 0 0.046875 L 1024 0.046875 L 1024 197.953125 L 0 197.953125 Z M 0 0.046875 "/><path style=" stroke:none;fill-rule:nonzero;fill:#ffffff;fill-opacity:1;" d="M 0 0.046875 L 1024 0.046875 L 1024 197.953125 L 0 197.953125 Z M 0 0.046875 "/></g><path style=" stroke:none;fill-rule:nonzero;fill:#2d2d2d;fill-opacity:1;" d="M 112.726562 102.136719 C 108.023438 99.226562 102.964844 97.3125 97.574219 96.34375 C 101.101562 95.347656 104.515625 94 107.804688 92.285156 C 114.453125 88.824219 119.859375 83.898438 124.03125 77.511719 C 128.195312 71.121094 130.28125 63.226562 130.28125 53.820312 C 130.28125 44.769531 128.105469 36.652344 123.761719 29.464844 C 119.417969 22.277344 112.898438 16.597656 104.214844 12.425781 C 95.523438 8.257812 84.621094 6.171875 71.5 6.171875 L 2.613281 6.171875 L 2.613281 192.507812 L 73.894531 192.507812 C 87.011719 192.507812 98.050781 190.292969 107.007812 185.855469 C 115.960938 181.421875 122.785156 175.339844 127.488281 167.617188 C 132.183594 159.898438 134.535156 151.25 134.535156 141.667969 C 134.535156 133.328125 132.582031 125.695312 128.683594 118.773438 C 124.78125 111.851562 119.460938 106.308594 112.726562 102.136719 Z M 29.210938 28 L 68.042969 28 C 79.746094 28 88.523438 30.617188 94.375 35.851562 C 100.226562 41.089844 103.148438 48.140625 103.148438 57.015625 C 103.148438 66.242188 100.226562 73.476562 94.375 78.710938 C 88.523438 83.945312 79.917969 86.5625 68.574219 86.5625 L 29.210938 86.5625 Z M 97.699219 162.296875 C 91.222656 167.710938 82.140625 170.414062 70.4375 170.414062 L 29.210938 170.414062 L 29.210938 107.058594 L 69.902344 107.058594 C 81.605469 107.058594 90.78125 109.988281 97.433594 115.84375 C 104.082031 121.703125 107.40625 129.511719 107.40625 139.269531 C 107.40625 149.210938 104.167969 156.886719 97.699219 162.296875 Z M 97.699219 162.296875 "/><path style=" stroke:none;fill-rule:nonzero;fill:#2d2d2d;fill-opacity:1;" d="M 183.871094 72.453125 C 179.171875 76.714844 175.3125 81.773438 172.300781 87.625 L 169.90625 59.144531 L 145.96875 59.144531 L 145.96875 192.507812 L 172.566406 192.507812 L 172.566406 129.953125 C 172.566406 121.613281 173.632812 114.691406 175.757812 109.191406 C 177.886719 103.691406 180.8125 99.386719 184.535156 96.277344 C 188.261719 93.175781 192.648438 90.914062 197.703125 89.492188 C 202.753906 88.070312 208.117188 87.359375 213.792969 87.359375 L 222.304688 87.359375 L 222.304688 59.144531 C 214.148438 59.144531 206.878906 60.300781 200.496094 62.605469 C 194.109375 64.914062 188.566406 68.195312 183.871094 72.453125 Z M 183.871094 72.453125 "/><path style=" stroke:none;fill-rule:nonzero;fill:#2d2d2d;fill-opacity:1;" d="M 908.609375 72.453125 C 903.910156 76.714844 900.050781 81.773438 897.039062 87.625 L 894.644531 59.144531 L 870.707031 59.144531 L 870.707031 192.507812 L 897.304688 192.507812 L 897.304688 129.953125 C 897.304688 121.613281 898.371094 114.691406 900.496094 109.191406 C 902.625 103.691406 905.550781 99.386719 909.273438 96.277344 C 913 93.175781 917.386719 90.914062 922.4375 89.492188 C 927.492188 88.070312 932.855469 87.359375 938.53125 87.359375 L 947.042969 87.359375 L 947.042969 59.144531 C 938.882812 59.144531 931.617188 60.300781 925.234375 62.605469 C 918.847656 64.914062 913.304688 68.195312 908.609375 72.453125 Z M 908.609375 72.453125 "/><path style=" stroke:none;fill-rule:nonzero;fill:#2d2d2d;fill-opacity:1;" d="M 235.335938 59.144531 L 261.933594 59.144531 L 261.933594 192.507812 L 235.335938 192.507812 Z M 235.335938 59.144531 "/><g clip-rule="nonzero" clip-path="url(#a2542f2ee7)"><path style=" stroke:none;fill-rule:nonzero;fill:#2d2d2d;fill-opacity:1;" d="M 261.269531 4.707031 C 257.8125 1.605469 253.597656 0.046875 248.636719 0.046875 C 243.671875 0.046875 239.546875 1.605469 236.269531 4.707031 C 232.984375 7.8125 231.347656 11.761719 231.347656 16.550781 C 231.347656 21.523438 232.984375 25.605469 236.269531 28.796875 C 239.546875 31.992188 243.671875 33.589844 248.636719 33.589844 C 253.597656 33.589844 257.8125 31.992188 261.269531 28.796875 C 264.726562 25.605469 266.457031 21.523438 266.457031 16.550781 C 266.457031 11.761719 264.726562 7.8125 261.269531 4.707031 Z M 261.269531 4.707031 "/></g><path style=" stroke:none;fill-rule:nonzero;fill:#2d2d2d;fill-opacity:1;" d="M 401.839844 59.144531 L 373.378906 59.144531 L 337.738281 111.316406 L 302.628906 59.144531 L 273.636719 59.144531 L 320.183594 125.960938 L 273.636719 192.507812 L 302.628906 192.507812 L 337.738281 140.332031 L 373.378906 192.507812 L 401.839844 192.507812 L 355.292969 125.960938 Z M 401.839844 59.144531 "/><g clip-rule="nonzero" clip-path="url(#69712f4f14)"><path style=" stroke:none;fill-rule:nonzero;fill:#2d2d2d;fill-opacity:1;" d="M 548.386719 140.867188 C 553.175781 133.414062 557.960938 125.160156 562.75 116.109375 L 578.195312 86.5625 L 550.53125 86.5625 L 538.546875 109.457031 C 534.464844 116.734375 530.566406 123.34375 526.84375 129.289062 C 525.789062 130.96875 524.75 132.570312 523.710938 134.128906 L 468.0625 78.042969 C 462.210938 71.652344 457.777344 65.890625 454.761719 60.742188 C 451.746094 55.59375 450.242188 50.449219 450.242188 45.300781 C 450.242188 39.089844 452.371094 33.988281 456.625 29.996094 C 460.878906 26.003906 466.730469 24.003906 474.179688 24.003906 C 480.382812 24.003906 485.789062 25.914062 490.402344 29.730469 C 495.011719 33.546875 497.320312 39.179688 497.320312 46.632812 L 523.121094 46.632812 C 523.472656 38.292969 521.65625 30.839844 517.664062 24.273438 C 513.675781 17.707031 508 12.519531 500.644531 8.699219 C 493.285156 4.886719 484.460938 2.976562 474.179688 2.976562 C 463.714844 2.976562 454.761719 4.800781 447.316406 8.433594 C 439.867188 12.074219 434.148438 17.132812 430.160156 23.605469 C 426.171875 30.085938 424.175781 37.40625 424.175781 45.570312 C 424.175781 53.378906 425.945312 60.609375 429.496094 67.261719 C 431.984375 71.9375 435.636719 77.035156 440.402344 82.539062 C 433.054688 85.628906 426.625 89.363281 421.117188 93.75 C 413.757812 99.605469 408.21875 106.308594 404.492188 113.847656 C 400.769531 121.394531 398.90625 129.6875 398.90625 138.738281 C 398.90625 150.273438 401.609375 160.296875 407.019531 168.816406 C 412.425781 177.335938 420.007812 183.949219 429.761719 188.648438 C 439.511719 193.347656 450.859375 195.703125 463.804688 195.703125 C 477.988281 195.703125 490.710938 192.949219 501.972656 187.449219 C 510.328125 183.371094 518.363281 177.375 526.085938 169.480469 L 548.917969 192.507812 L 581.632812 192.507812 L 541.042969 151.597656 C 543.488281 148.25 545.9375 144.679688 548.386719 140.867188 Z M 491.867188 166.6875 C 483.796875 171.125 474.710938 173.34375 464.605469 173.34375 C 456.800781 173.34375 449.929688 171.789062 443.992188 168.683594 C 438.046875 165.582031 433.4375 161.277344 430.160156 155.773438 C 426.878906 150.273438 425.238281 144.152344 425.238281 137.40625 C 425.238281 128.179688 428.121094 120.148438 433.882812 113.316406 C 438.890625 107.378906 446.214844 102.484375 455.839844 98.625 L 509.320312 152.566406 C 503.523438 158.753906 497.707031 163.476562 491.867188 166.6875 Z M 491.867188 166.6875 "/></g><path style=" stroke:none;fill-rule:nonzero;fill:#2d2d2d;fill-opacity:1;" d="M 704.105469 86.5625 L 612.074219 86.5625 L 612.074219 6.171875 L 585.480469 6.171875 L 585.480469 192.507812 L 612.074219 192.507812 L 612.074219 108.390625 L 704.105469 108.390625 L 704.105469 192.507812 L 730.699219 192.507812 L 730.699219 6.171875 L 704.105469 6.171875 Z M 704.105469 86.5625 "/><g clip-rule="nonzero" clip-path="url(#9ca52c56ef)"><path style=" stroke:none;fill-rule:nonzero;fill:#2d2d2d;fill-opacity:1;" d="M 832.035156 62.605469 C 823.523438 58.171875 813.058594 55.949219 800.648438 55.949219 C 790.894531 55.949219 781.765625 57.773438 773.253906 61.40625 C 764.742188 65.046875 757.78125 70.191406 752.375 76.847656 C 746.964844 83.5 743.730469 91.621094 742.667969 101.203125 L 769.265625 101.203125 C 770.503906 93.574219 774.050781 87.851562 779.902344 84.03125 C 785.753906 80.21875 792.667969 78.3125 800.648438 78.3125 C 807.386719 78.3125 813.058594 79.597656 817.671875 82.171875 C 822.28125 84.746094 825.738281 88.558594 828.042969 93.617188 C 830.347656 98.675781 831.503906 105.109375 831.503906 112.917969 L 796.660156 112.917969 C 784.777344 112.917969 774.539062 114.605469 765.9375 117.972656 C 757.335938 121.347656 750.78125 126.140625 746.257812 132.347656 C 741.734375 138.5625 739.476562 146.105469 739.476562 154.976562 C 739.476562 162.253906 741.246094 168.996094 744.796875 175.207031 C 748.339844 181.421875 753.746094 186.386719 761.019531 190.113281 C 768.285156 193.839844 777.417969 195.703125 788.414062 195.703125 C 794.085938 195.703125 799.273438 195.039062 803.976562 193.707031 C 808.671875 192.375 812.839844 190.558594 816.472656 188.25 C 820.105469 185.945312 823.296875 183.191406 826.050781 179.996094 C 828.796875 176.804688 831.058594 173.433594 832.832031 169.882812 L 834.960938 192.507812 L 858.101562 192.507812 L 858.101562 110.253906 C 858.101562 99.074219 855.878906 89.449219 851.449219 81.371094 C 847.015625 73.300781 840.546875 67.042969 832.035156 62.605469 Z M 830.972656 132.082031 C 830.792969 137.585938 829.859375 142.820312 828.179688 147.785156 C 826.488281 152.757812 824.007812 157.238281 820.730469 161.230469 C 817.445312 165.222656 813.503906 168.375 808.894531 170.679688 C 804.28125 172.988281 799.140625 174.140625 793.46875 174.140625 C 787.96875 174.140625 783.269531 173.300781 779.371094 171.613281 C 775.46875 169.929688 772.496094 167.484375 770.460938 164.292969 C 768.421875 161.097656 767.402344 157.371094 767.402344 153.113281 C 767.402344 149.03125 768.421875 145.351562 770.460938 142.066406 C 772.496094 138.78125 775.914062 136.207031 780.703125 134.34375 C 785.488281 132.480469 791.691406 131.550781 799.320312 131.550781 L 830.972656 131.550781 Z M 830.972656 132.082031 "/></g><path style=" stroke:none;fill-rule:nonzero;fill:#2d2d2d;fill-opacity:1;" d="M 1021.386719 81.773438 L 1021.386719 59.144531 L 983.621094 59.144531 L 983.621094 25.871094 L 957.023438 25.871094 L 957.023438 149.917969 C 957.023438 160.566406 958.703125 168.996094 962.074219 175.207031 C 965.441406 181.421875 970.230469 185.855469 976.4375 188.515625 C 982.644531 191.179688 989.910156 192.507812 998.25 192.507812 L 1020.058594 192.507812 L 1020.058594 169.882812 L 1004.898438 169.882812 C 996.917969 169.882812 991.375 168.511719 988.273438 165.757812 C 985.167969 163.007812 983.621094 157.816406 983.621094 150.183594 L 983.621094 81.773438 Z M 1021.386719 81.773438 "/><path style=" stroke:none;fill-rule:nonzero;fill:#2d2d2d;fill-opacity:1;" d="M 1008.808594 28.617188 C 1002.734375 28.617188 997.796875 23.675781 997.796875 17.597656 C 997.796875 11.523438 1002.734375 6.582031 1008.808594 6.582031 C 1014.875 6.582031 1019.816406 11.523438 1019.816406 17.597656 C 1019.816406 23.675781 1014.875 28.617188 1008.808594 28.617188 Z M 1008.808594 8.28125 C 1003.671875 8.28125 999.496094 12.460938 999.496094 17.597656 C 999.496094 22.734375 1003.671875 26.914062 1008.808594 26.914062 C 1013.9375 26.914062 1018.113281 22.734375 1018.113281 17.597656 C 1018.113281 12.460938 1013.9375 8.28125 1008.808594 8.28125 Z M 1008.808594 8.28125 "/><path style=" stroke:none;fill-rule:nonzero;fill:#2d2d2d;fill-opacity:1;" d="M 1005.339844 22.496094 L 1005.339844 12.042969 L 1008.890625 12.042969 C 1009.707031 12.042969 1010.378906 12.179688 1010.90625 12.460938 C 1011.429688 12.738281 1011.824219 13.109375 1012.082031 13.570312 C 1012.34375 14.035156 1012.46875 14.558594 1012.46875 15.148438 C 1012.46875 15.703125 1012.34375 16.21875 1012.082031 16.695312 C 1011.824219 17.164062 1011.429688 17.542969 1010.894531 17.828125 C 1010.363281 18.113281 1009.675781 18.253906 1008.828125 18.253906 L 1006.832031 18.253906 L 1006.832031 22.496094 Z M 1006.832031 17.117188 L 1008.785156 17.117188 C 1009.519531 17.117188 1010.0625 16.9375 1010.410156 16.574219 C 1010.761719 16.210938 1010.933594 15.746094 1010.933594 15.175781 C 1010.933594 14.597656 1010.765625 14.140625 1010.425781 13.804688 C 1010.085938 13.464844 1009.535156 13.296875 1008.769531 13.296875 L 1006.832031 13.296875 Z M 1010.828125 22.496094 L 1008.578125 17.851562 L 1010.234375 17.851562 L 1012.574219 22.496094 Z M 1010.828125 22.496094 "/></g></svg>