<svg width="140" height="55" viewBox="0 0 140 55" fill="none" xmlns="http://www.w3.org/2000/svg">
<path d="M48.0971 15.8669C48.0498 15.8786 48.0024 15.8902 47.9551 15.8995L48.0971 15.8669Z" fill="#CD2340"/>
<path d="M48.4299 15.8064C48.3877 15.8134 48.3479 15.8204 48.3057 15.8297L48.4299 15.8064Z" fill="#CD2340"/>
<path d="M47.7712 15.9462C47.7215 15.9601 47.6718 15.9741 47.6221 15.9881L47.7712 15.9462Z" fill="#CD2340"/>
<path d="M47.4466 16.0416C47.3969 16.0579 47.3472 16.0742 47.2998 16.0905L47.4466 16.0416Z" fill="#CD2340"/>
<path d="M47.127 16.1534C47.0796 16.1721 47.0323 16.1907 46.9873 16.2093L47.127 16.1534Z" fill="#CD2340"/>
<path d="M49.1208 15.7343C49.0992 15.7343 49.0801 15.7366 49.0586 15.739L49.1208 15.7343Z" fill="#CD2340"/>
<path d="M48.7713 15.7599C48.7385 15.7645 48.7057 15.7692 48.6729 15.7739L48.7713 15.7599Z" fill="#CD2340"/>
<path d="M110.041 29.3213V26.4334H103.997V17.1876C103.995 17.0222 103.978 16.8615 103.954 16.7008C103.895 16.3305 103.777 15.9835 103.616 15.6621C103.611 15.6528 103.606 15.6458 103.602 15.6365C103.59 15.6155 103.578 15.5946 103.566 15.5736C103.552 15.5433 103.533 15.5131 103.517 15.4828C103.517 15.4804 103.517 15.4804 103.514 15.4781C103.389 15.2685 103.244 15.0729 103.079 14.8959C102.884 14.6886 102.667 14.5093 102.425 14.3626C102.307 14.288 102.184 14.2205 102.053 14.1669C101.843 14.0714 101.615 14.0039 101.381 13.962C101.239 13.9364 101.095 13.9201 100.945 13.9154H100.889V29.3236H110.044L110.041 29.3213Z" fill="#CD2340"/>
<path d="M60.7584 23.4547C62.3138 23.0611 63.9118 21.6055 63.9118 18.8807C63.9118 16.0161 62.0747 13.9154 59.0752 13.9154H52.3398V29.3213H55.4057V23.7994H57.65L60.479 29.3213H63.997L60.7584 23.4547ZM58.623 20.9837H55.4057V16.7334H58.623C59.8517 16.7334 60.7797 17.5648 60.7797 18.8574C60.7797 20.15 59.8517 20.9814 58.623 20.9814V20.9837Z" fill="#CD2340"/>
<path d="M67.875 29.3213H78.0644V26.48H70.9408V22.9004H77.9129V20.0824H70.9408V16.7334H78.0644V13.9154H67.875V29.3213Z" fill="#CD2340"/>
<path d="M90.6586 13.9154H86.8162L81.248 29.3213H84.6145L85.5212 26.664H89.1979V26.6686H91.9583L92.8626 29.3213H96.2078L95.1638 26.4218C95.2395 26.3915 95.3129 26.3589 95.3839 26.324C95.3934 26.3193 95.4005 26.3146 95.41 26.3123C95.4289 26.3007 95.4479 26.2913 95.4668 26.2797C95.4976 26.2634 95.5236 26.2494 95.5544 26.2331L95.5568 26.2308C95.7556 26.1167 95.9379 25.9863 96.1013 25.8349C96.2978 25.6579 96.4635 25.4599 96.6032 25.2433C96.6718 25.1339 96.7334 25.0221 96.7855 24.9056C96.873 24.7123 96.937 24.5074 96.9772 24.2931C97.0056 24.1394 97.0222 23.981 97.0222 23.818H94.2286L90.6633 13.9131L90.6586 13.9154ZM89.1979 23.8204V23.825H86.3427L88.7386 16.7567L91.1131 23.8204H89.1979Z" fill="#CD2340"/>
<path d="M111.218 16.8009H115.427V29.3213H118.514V16.8009H122.705V13.9154H111.218V16.8009Z" fill="#CD2340"/>
<mask id="mask0_2065_2380" style="mask-type:luminance" maskUnits="userSpaceOnUse" x="124" y="13" width="15" height="17">
<path d="M124.278 13.7128H138.985V29.8103H124.278V13.7128Z" fill="white"/>
</mask>
<g mask="url(#mask0_2065_2380)">
<path d="M133.48 29.3213V23.0145L138.985 13.9154H135.485L131.946 20.1057L128.362 13.9154H124.865L130.414 23.0145V29.3213H133.48Z" fill="#CD2340"/>
</g>
<path d="M54.6883 36.2545C55.7466 36.2545 56.1159 37.03 56.2082 37.5447H56.8451C56.7267 36.513 55.9312 35.6466 54.6883 35.6466C53.2987 35.6466 52.3398 36.8297 52.3398 38.4623C52.3398 40.0949 53.2987 41.2873 54.6883 41.2873C55.9383 41.2873 56.7338 40.4209 56.8451 39.2215H56.2082C56.1656 39.9062 55.7537 40.6794 54.6883 40.6794C53.4833 40.6794 52.979 39.5639 52.979 38.4623C52.979 37.3607 53.4833 36.2545 54.6883 36.2545Z" fill="#CD2340"/>
<path d="M64.1127 35.6466C62.6213 35.6466 61.627 36.8297 61.627 38.4623C61.627 40.0949 62.6213 41.2873 64.1127 41.2873C65.6019 41.2873 66.5962 40.0949 66.5962 38.4623C66.5962 36.8297 65.6019 35.6466 64.1127 35.6466ZM64.1127 40.6818C62.8343 40.6818 62.2662 39.6337 62.2662 38.4646C62.2662 37.2955 62.8343 36.2545 64.1127 36.2545C65.3888 36.2545 65.957 37.2955 65.957 38.4646C65.957 39.6337 65.3888 40.6818 64.1127 40.6818Z" fill="#CD2340"/>
<path d="M74.0867 40.2625H74.0748L72.4839 35.7537H71.6104V41.1825H72.2496V36.7179H72.2638L73.7979 41.1825H74.3637L75.8978 36.7179H75.912V41.1825H76.5512V35.7537H75.6776L74.0867 40.2625Z" fill="#CD2340"/>
<path d="M84.2341 40.2625H84.2199L82.6314 35.7537H81.7578V41.1825H82.397V36.7179H82.4112L83.9429 41.1825H84.5111L86.0452 36.7179H86.0594V41.1825H86.6963V35.7537H85.825L84.2341 40.2625Z" fill="#CD2340"/>
<path d="M92.5435 38.6765H95.1477V38.0687H92.5435V36.3592H95.4886V35.7537H91.9043V41.1825H95.5738V40.5746H92.5435V38.6765Z" fill="#CD2340"/>
<path d="M103.399 38.6765V38.6602C103.96 38.5088 104.308 38.0757 104.308 37.2931C104.308 36.329 103.633 35.7537 102.634 35.7537H100.574V41.1825H101.213V38.9886H102.669C103.953 38.9886 103.472 40.9542 103.69 41.1825H104.379V41.1359C104.118 41.0451 104.528 38.9118 103.399 38.6765ZM102.485 38.3784H101.213V36.3592H102.485C103.008 36.3592 103.668 36.4268 103.668 37.37C103.668 38.3109 103.01 38.3784 102.485 38.3784Z" fill="#CD2340"/>
<path d="M111.48 36.2545C112.539 36.2545 112.906 37.03 113 37.5447H113.637C113.516 36.513 112.723 35.6466 111.48 35.6466C110.091 35.6466 109.132 36.8297 109.132 38.4623C109.132 40.0949 110.091 41.2873 111.48 41.2873C112.73 41.2873 113.526 40.4209 113.637 39.2215H113C112.958 39.9062 112.546 40.6794 111.48 40.6794C110.275 40.6794 109.769 39.5639 109.769 38.4623C109.769 37.3607 110.275 36.2545 111.48 36.2545Z" fill="#CD2340"/>
<path d="M118.625 35.7537H119.264V41.1825H118.625V35.7537Z" fill="#CD2340"/>
<path d="M125.955 35.7537L124.082 41.1825H124.74L125.188 39.8224H127.425L127.872 41.1825H128.53L126.665 35.7537H125.955ZM125.401 39.2168L126.303 36.3825H126.319L127.219 39.2168H125.401Z" fill="#CD2340"/>
<path d="M133.973 35.7537H133.334V41.1825H136.634V40.5746H133.973V35.7537Z" fill="#CD2340"/>
<mask id="mask1_2065_2380" style="mask-type:luminance" maskUnits="userSpaceOnUse" x="0" y="0" width="41" height="55">
<path d="M0.564453 0H40.6426V54.5575H0.564453V0Z" fill="white"/>
</mask>
<g mask="url(#mask1_2065_2380)">
<path d="M37.894 2.5059C36.3978 0.905925 34.3713 0.00695801 32.2572 0.00695801H0.564453V54.5482H40.188L40.2259 8.53783C40.2259 6.27644 39.3855 4.10587 37.8916 2.5059H37.894ZM19.6009 47.0048H12.5152V28.1265C12.92 28.1288 13.313 28.166 13.6966 28.2382C14.2269 28.3291 14.7335 28.4851 15.2141 28.697C15.5053 28.8251 15.7846 28.9719 16.0545 29.1372C16.5966 29.4726 17.0867 29.8755 17.5247 30.3436C17.8964 30.7418 18.2254 31.182 18.5072 31.6594C18.5095 31.6618 18.5119 31.6641 18.5119 31.6664C18.5521 31.734 18.59 31.8038 18.6303 31.8714C18.6539 31.9203 18.6824 31.9669 18.706 32.0134C18.7179 32.0321 18.7273 32.053 18.7368 32.074C19.26 33.0987 19.5701 34.2678 19.5985 35.5092V47.0048H19.6009ZM20.6189 18.9179C20.6023 18.9551 20.581 18.9924 20.5621 19.0297C20.5147 19.1275 20.4698 19.2253 20.4248 19.3231C20.4082 19.3627 20.3916 19.4 20.3727 19.4395C20.3348 19.5327 20.2969 19.6235 20.2591 19.7144C20.252 19.733 20.2449 19.754 20.2354 19.7726C20.1904 19.8937 20.1454 20.0171 20.1028 20.1406C20.1004 20.1522 20.0957 20.1638 20.091 20.1755C19.7761 21.1187 19.608 22.1225 19.6151 23.1425V31.175C19.5109 30.991 19.402 30.8117 19.286 30.6347C19.286 30.6347 19.286 30.6347 19.286 30.6324C19.2269 30.5462 19.1677 30.4577 19.1061 30.3715C18.8788 30.0525 18.6303 29.7474 18.3604 29.4586C18.3438 29.44 18.3272 29.4237 18.3083 29.4074C18.2917 29.3887 18.2728 29.3701 18.2538 29.3515C17.9792 29.065 17.6857 28.8018 17.3803 28.562C17.3708 28.555 17.359 28.5457 17.3495 28.5363C17.2856 28.4898 17.2216 28.4409 17.1577 28.3943C17.127 28.371 17.0938 28.3477 17.063 28.3244C17.0133 28.2895 16.9612 28.2522 16.9091 28.2196C16.8571 28.1847 16.805 28.1521 16.7553 28.1171C16.7174 28.0939 16.6795 28.0682 16.6416 28.0449C16.5706 28.003 16.502 27.9611 16.4309 27.9192C16.4049 27.9052 16.3788 27.8912 16.3552 27.8773C16.2841 27.8377 16.2108 27.8004 16.1397 27.7631C16.1113 27.7468 16.0853 27.7329 16.0569 27.7189V8.13958C16.0569 8.13958 16.064 8.13958 16.0663 8.13958C16.4712 8.13958 16.8618 8.17917 17.2453 8.25137C17.6928 8.33055 18.126 8.45399 18.5403 8.61934C18.5829 8.63797 18.6279 8.65427 18.6705 8.67291C18.7084 8.68921 18.7439 8.70318 18.7818 8.72181C20.2188 9.36693 21.4333 10.5081 22.2145 11.9474C22.224 11.966 22.2359 11.9846 22.2453 12.0033C22.2714 12.0568 22.2998 12.1104 22.3258 12.164C22.3566 12.2292 22.3897 12.2921 22.4205 12.3573C22.4229 12.3596 22.4229 12.3666 22.4252 12.3689C22.8656 13.3238 23.1236 14.3928 23.1473 15.5246V15.9019H23.1449C22.2927 16.533 21.5682 17.3295 21.0048 18.2355C20.9977 18.2448 20.9953 18.2495 20.9906 18.2588C20.9196 18.3706 20.8509 18.4847 20.787 18.6011C20.7799 18.6151 20.7728 18.6291 20.7633 18.6407C20.7136 18.7339 20.6639 18.8247 20.6165 18.9179H20.6189ZM27.8893 47.0048H20.7941V23.1425C20.7941 21.0488 21.5895 19.1554 22.8727 17.7837C22.9248 17.7301 22.9792 17.6742 23.036 17.6207C23.0739 17.5811 23.1118 17.5438 23.1497 17.5065C23.4764 17.1898 23.8339 16.908 24.2127 16.6635C24.2198 16.6565 24.2292 16.6518 24.2363 16.6472C24.3216 16.5913 24.4091 16.5377 24.4967 16.4865C24.518 16.4748 24.5417 16.4632 24.563 16.4492C24.6364 16.4073 24.7098 16.3677 24.7856 16.3281C24.8187 16.3118 24.8519 16.2955 24.8874 16.2769C24.9513 16.2443 25.0152 16.214 25.0815 16.1814C25.1241 16.1627 25.1667 16.1441 25.207 16.1255C25.2662 16.0999 25.3253 16.0742 25.3869 16.051C25.4342 16.0323 25.4816 16.0137 25.5266 15.9951C25.5834 15.9741 25.6426 15.9531 25.6994 15.9322C25.7491 15.9159 25.7988 15.8996 25.8485 15.8833C25.9077 15.8646 25.9645 15.8483 26.0237 15.832C26.0734 15.8157 26.1232 15.8018 26.1729 15.7878C26.2344 15.7715 26.296 15.7575 26.3599 15.7435C26.4073 15.7296 26.4546 15.7202 26.502 15.7109C26.5706 15.6946 26.6393 15.683 26.7103 15.6713C26.7529 15.662 26.7955 15.655 26.8381 15.6481C26.9163 15.6364 26.9967 15.6271 27.0772 15.6154C27.1104 15.6108 27.1435 15.6061 27.179 15.6038C27.2737 15.5922 27.3684 15.5852 27.4655 15.5782C27.4868 15.5782 27.5081 15.5759 27.5294 15.5735C27.6454 15.5665 27.7662 15.5642 27.8845 15.5642H27.8869V47.0024L27.8893 47.0048Z" fill="#CD2340"/>
</g>
<path d="M20.9927 18.2588C20.9975 18.2495 21.0022 18.2449 21.0046 18.2356C21.5727 17.3296 22.2924 16.5331 23.1447 15.902H23.1494V15.5247C23.1234 14.3928 22.8654 13.3238 22.425 12.369C22.4226 12.3667 22.4226 12.3597 22.4203 12.3573C22.3895 12.2921 22.3587 12.2292 22.3256 12.164C22.2995 12.1105 22.2735 12.0569 22.2451 12.0033C22.2356 11.987 22.2238 11.9684 22.2143 11.9474C21.4331 10.5082 20.2209 9.36699 18.7839 8.72188C18.746 8.70325 18.7082 8.68928 18.6726 8.67297C18.6277 8.65434 18.585 8.63571 18.5401 8.61941C18.1258 8.45405 17.6925 8.33062 17.2451 8.25144C16.8616 8.17924 16.4709 8.13965 16.0661 8.13965C16.0637 8.13965 16.0614 8.13965 16.0566 8.13965V27.719C16.085 27.7329 16.1111 27.7469 16.1395 27.7609C16.2129 27.7981 16.2839 27.8354 16.3549 27.875C16.381 27.8913 16.407 27.9053 16.4307 27.9192C16.5017 27.9588 16.5727 28.0008 16.6438 28.045C16.6816 28.0683 16.7195 28.0916 16.755 28.1149C16.8071 28.1475 16.8592 28.1824 16.9113 28.2174C16.961 28.2523 17.0131 28.2872 17.0652 28.3245C17.0959 28.3454 17.1267 28.3687 17.1599 28.392C17.2238 28.4386 17.2877 28.4875 17.3493 28.5364C17.3611 28.5434 17.3706 28.5527 17.3824 28.562C17.6878 28.7996 17.979 29.0628 18.256 29.3492C18.2725 29.3678 18.2915 29.3865 18.3104 29.4051C18.327 29.4237 18.3436 29.44 18.3625 29.4563C18.6324 29.7451 18.8786 30.0502 19.1083 30.3716C19.1674 30.4578 19.229 30.544 19.2858 30.6325C19.2858 30.6325 19.2858 30.6325 19.2882 30.6348C19.4018 30.8095 19.5131 30.9888 19.6149 31.1728V23.1403C19.6101 22.1225 19.7782 21.1188 20.0931 20.1756C20.0955 20.1639 20.1002 20.1523 20.1049 20.1406C20.1475 20.0149 20.1902 19.8938 20.2375 19.7727C20.2446 19.7517 20.2517 19.7331 20.2612 19.7121C20.2967 19.6213 20.3346 19.5281 20.3748 19.4396C20.3914 19.4 20.408 19.3604 20.4269 19.3208C20.4695 19.223 20.5169 19.1252 20.5642 19.0297C20.5832 18.9925 20.6021 18.9552 20.621 18.9179C20.6684 18.8248 20.7181 18.7316 20.7678 18.6408C20.7749 18.6268 20.782 18.6128 20.7915 18.5989C20.8554 18.4848 20.9241 18.3683 20.9951 18.2565L20.9927 18.2588Z" fill="#F1F8FA"/>
<path d="M18.7084 32.0158C18.6847 31.9669 18.6563 31.9203 18.6326 31.8737C18.5948 31.8038 18.5545 31.7363 18.5166 31.6664C18.5143 31.6641 18.5119 31.6618 18.5095 31.6594C18.2278 31.1843 17.8987 30.7418 17.527 30.3459C17.0891 29.8755 16.599 29.4726 16.0569 29.1395C15.787 28.9742 15.5076 28.8251 15.2164 28.697C14.7359 28.4874 14.2292 28.3291 13.6989 28.2382C13.3154 28.166 12.9224 28.1288 12.5176 28.1288V47.0071H19.6033V35.5115C19.5749 34.2678 19.2671 33.101 18.7415 32.0763C18.7321 32.0577 18.7226 32.0367 18.7108 32.0158H18.7084Z" fill="#F1F8FA"/>
<path d="M27.5312 15.5758C27.5099 15.5758 27.4886 15.5805 27.4673 15.5828C27.3726 15.5875 27.2755 15.5945 27.1808 15.6061C27.1453 15.6084 27.1122 15.6154 27.079 15.6178C26.9985 15.6271 26.9181 15.6387 26.8399 15.6504C26.7973 15.6574 26.7547 15.6667 26.7121 15.6737C26.6434 15.6853 26.5724 15.6969 26.5038 15.7133C26.4564 15.7226 26.4091 15.7342 26.3617 15.7459C26.2978 15.7598 26.2362 15.7761 26.1747 15.7901C26.125 15.8041 26.0753 15.8181 26.0255 15.8344C25.9664 15.8507 25.9072 15.867 25.8503 15.8856C25.8006 15.9019 25.7509 15.9182 25.7012 15.9345C25.6444 15.9555 25.5876 15.9764 25.5284 15.9974C25.481 16.016 25.436 16.0346 25.3887 16.0533C25.3271 16.0789 25.268 16.1022 25.2088 16.1278C25.1685 16.1464 25.1259 16.1651 25.0857 16.1837C25.0194 16.214 24.9531 16.2466 24.8892 16.2792C24.856 16.2978 24.8205 16.3118 24.7874 16.3304C24.7116 16.37 24.6406 16.4096 24.5648 16.4515C24.5435 16.4655 24.5199 16.4771 24.4985 16.4911C24.411 16.54 24.3234 16.5936 24.2381 16.6495C24.231 16.6541 24.2216 16.6588 24.2145 16.6658C23.8357 16.9126 23.4806 17.1945 23.1515 17.5089C23.1136 17.5461 23.0734 17.5834 23.0378 17.623C22.981 17.6765 22.9266 17.7324 22.8745 17.786C21.5914 19.1577 20.7959 21.0488 20.7959 23.1449V47.0071H27.8911V15.5665C27.8911 15.5665 27.8911 15.5665 27.8887 15.5665C27.7703 15.5665 27.652 15.5712 27.5336 15.5758H27.5312Z" fill="#F1F8FA"/>
</svg>
